<svg width="18" height="15" viewBox="0 0 18 15" fill="none" xmlns="http://www.w3.org/2000/svg">
<path d="M17.2727 2.62966C16.1862 2.6783 16.2099 2.67433 16.0871 2.68432L16.7306 0.899492C16.7306 0.899492 14.722 1.61713 14.2128 1.74551C12.8755 0.578108 10.8877 0.526528 9.46657 1.37485C8.30282 2.06971 7.67818 3.26296 7.88652 4.65767C5.62161 4.35242 3.7133 3.30968 2.20666 1.55186L1.73014 0.995996L1.37407 1.63108C0.924043 2.43358 0.774604 3.35115 0.953167 4.2147C1.02644 4.56897 1.15097 4.90687 1.32347 5.22326L0.914687 5.06942L0.866192 5.73279C0.817038 6.40666 1.04805 7.19329 1.48424 7.83682C1.60706 8.01806 1.7652 8.21708 1.96563 8.41342L1.75439 8.38193L2.01215 9.14207C2.35096 10.1408 3.05467 10.9135 3.9679 11.343C3.05585 11.7189 2.31907 11.9588 1.10801 12.3457L0 12.6994L1.02341 13.2429C1.41361 13.4501 2.79242 14.1421 4.15477 14.3497C7.18308 14.811 10.5926 14.4354 12.888 12.4276C14.8213 10.7364 15.4557 8.33087 15.3239 5.8275C15.304 5.44852 15.4109 5.08682 15.6249 4.80921C16.0536 4.25335 17.2701 2.63338 17.2727 2.62966ZM14.8157 4.22046C14.4602 4.68135 14.2822 5.26998 14.3141 5.87768C14.4471 8.4028 13.7397 10.361 12.2114 11.6978C10.4262 13.2594 7.54666 13.8723 4.31146 13.3794C3.72556 13.2902 3.12003 13.0904 2.61887 12.8909C3.63424 12.5516 4.41833 12.2492 5.68461 11.6671L7.45231 10.8545L5.50064 10.7331C4.56579 10.675 3.78737 10.235 3.30887 9.52054C3.56294 9.5062 3.80792 9.46627 4.05185 9.40023L5.91324 8.89671L4.0363 8.45028C3.12425 8.23334 2.60437 7.70333 2.32882 7.29683C2.14789 7.02972 2.02968 6.75607 1.95878 6.5038C2.14696 6.55282 2.36638 6.58777 2.72021 6.62181L4.45747 6.78871L3.08102 5.74585C2.08924 4.99454 1.6918 3.8658 1.98316 2.78069C5.07842 5.89879 8.71265 5.66444 9.07847 5.74687C8.99796 4.98725 8.99585 4.98546 8.97476 4.91314C8.50629 3.30469 9.53299 2.48798 9.99606 2.21152C10.9633 1.63416 12.4987 1.54712 13.5622 2.49835C13.7919 2.70364 14.1025 2.78441 14.3932 2.71427C14.6541 2.6513 14.8682 2.58461 15.0779 2.51204L14.6414 3.72257L15.1986 3.72296C15.0935 3.85991 14.9673 4.02386 14.8157 4.22046Z" fill="white"/>
</svg>
